<svg width="108" height="108" viewBox="0 0 108 108" fill="none" xmlns="http://www.w3.org/2000/svg">
<path fill-rule="evenodd" clip-rule="evenodd" d="M68 18.667H70H72.6667H84C92.8366 18.667 100 25.8304 100 34.667C100 43.5036 92.8366 50.667 84 50.667C79.5717 50.667 75.5636 48.868 72.6667 45.961V89.3337H68V34.667V18.667Z" fill="white"/>
<path fill-rule="evenodd" clip-rule="evenodd" d="M34.6669 18.6662L34.6668 18.666L34.6667 18.6662L8 89.3327H34.6667L34.6667 18.6662H34.6669Z" fill="white"/>
<path fill-rule="evenodd" clip-rule="evenodd" d="M38 18.667H42.6667L51.3333 65.3337L60 18.667H64.6667V89.3337H60V62.667L51.3333 69.3337L42.6667 62.667V89.3337H38V18.667Z" fill="white"/>
<rect x="4" y="4" width="100" height="100" stroke="white" stroke-width="7"/>
</svg>
