<svg width="170" height="170" viewBox="0 0 170 170" fill="none" xmlns="http://www.w3.org/2000/svg">
<g id="Logo XB">
<path id="Vector" d="M85 169.179C131.491 169.179 169.179 131.491 169.179 85C169.179 38.509 131.491 0.820618 85 0.820618C38.509 0.820618 0.820618 38.509 0.820618 85C0.820618 131.491 38.509 169.179 85 169.179Z" fill="url(#paint0_radial_197_167)"/>
<path id="Vector_2" d="M67.0411 119.092C67.34 119.444 67.7056 119.734 68.1169 119.944C68.5282 120.155 68.977 120.282 69.4376 120.318C69.8981 120.354 70.3612 120.299 70.8003 120.155C71.2394 120.011 71.6457 119.782 71.9959 119.481L108.394 87.939C109.397 88.6063 110.362 89.3191 111.288 90.0775C117.974 95.5561 121.661 102.708 121.661 110.218C121.661 117.728 117.979 124.879 111.288 130.357C104.166 136.194 94.6053 139.407 84.3708 139.407C74.5407 139.407 65.3348 136.443 58.3124 131.04C58.0208 130.819 57.7326 130.588 57.4479 130.348C56.0537 129.211 54.7561 127.959 53.5685 126.607L53.5097 126.54C51.8985 124.687 48.8557 125.793 48.8333 128.248L48.8004 132.024V132.197C48.8012 135.848 49.8616 139.42 51.8529 142.481C53.8442 145.541 56.6808 147.958 60.0187 149.438L60.1138 149.481C67.5131 152.747 75.7941 154.479 84.3708 154.479C98.0768 154.479 111.026 150.054 120.833 142.018C125.75 137.992 129.626 133.267 132.357 127.975C135.222 122.498 136.718 116.409 136.718 110.228C136.718 104.047 135.222 97.9578 132.357 92.4806C129.65 87.2371 125.819 82.5503 120.966 78.5463L120.947 78.5325C120.909 78.4997 120.873 78.4685 120.833 78.4374C120.238 77.9499 119.632 77.4756 119.013 77.0146L119.082 76.9282C121.004 74.5486 122.63 71.9437 123.923 69.171C126.144 64.4099 127.295 59.2199 127.295 53.9661C127.295 48.7122 126.144 43.5222 123.923 38.7612C121.754 34.1253 118.678 29.9714 114.876 26.5454C107.067 19.4451 96.7335 15.5345 85.778 15.5345C75.6662 15.5345 66.0851 18.866 58.5285 24.96C57.8992 25.4683 57.2802 25.9973 56.6786 26.5454C56.3813 26.8151 56.0891 27.0888 55.8021 27.3665C54.7532 28.383 53.9279 29.6072 53.3792 30.9609C52.8304 32.3145 52.5703 33.7678 52.6154 35.2278C52.6604 36.6877 53.0097 38.1222 53.6409 39.4394C54.2721 40.7567 55.1713 41.9276 56.281 42.8775L57.2197 43.6831C57.6034 44.0145 58.0543 44.2588 58.5414 44.3992C59.0285 44.5395 59.5403 44.5727 60.0414 44.4963C60.5426 44.4199 61.0212 44.2357 61.4444 43.9566C61.8675 43.6774 62.2252 43.3098 62.4926 42.8792C64.462 39.713 67.1215 37.0329 70.2723 35.039C74.6638 32.259 79.7295 30.7272 84.9257 30.6081C85.1954 30.6081 85.4651 30.596 85.7365 30.596H85.7745C100.362 30.596 112.225 41.0812 112.225 53.9661C112.225 58.8361 110.531 63.3622 107.634 67.105L83.3974 46.4889C82.7755 45.9511 81.9838 45.6498 81.1616 45.6381C80.3395 45.6264 79.5395 45.905 78.9025 46.425L78.7798 46.5287C73.882 50.6312 73.863 58.1602 78.7106 62.3197L97.0326 77.8479L67.4854 103.498C65.3846 105.308 64.0842 107.874 63.8676 110.639C63.651 113.403 64.5356 116.141 66.3289 118.255L67.0411 119.092Z" fill="white"/>
</g>
<defs>
<radialGradient id="paint0_radial_197_167" cx="0" cy="0" r="1" gradientUnits="userSpaceOnUse" gradientTransform="translate(86.039 85) scale(112.24)">
<stop stop-color="#00A9B3"/>
<stop offset="1" stop-color="#4D3BA5"/>
</radialGradient>
</defs>
</svg>
