<svg width="581" height="96" viewBox="0 0 581 96" fill="none" xmlns="http://www.w3.org/2000/svg">
<g id="Logotype">
<path id="Vector" d="M47.6619 95.1614C73.9848 95.1614 95.3238 73.8588 95.3238 47.5807C95.3238 21.3026 73.9848 0 47.6619 0C21.339 0 0 21.3026 0 47.5807C0 73.8588 21.339 95.1614 47.6619 95.1614Z" fill="url(#paint0_radial_197_151)"/>
<path id="Vector_2" d="M113.964 73.7973L132.205 46.9729L114.442 20.8126H122.441L136.196 41.4537L149.909 20.8126H157.924L140.158 46.9729L158.367 73.7973H150.379L136.196 52.5295L122.006 73.7973H113.964Z" fill="url(#paint1_linear_197_151)"/>
<path id="Vector_3" d="M164.274 73.7973V20.8126H184.953C188.123 20.8126 190.833 21.4624 193.081 22.7621C195.237 23.9718 197.02 25.747 198.239 27.8956C199.428 29.9876 200.049 32.3537 200.039 34.759C200.039 37.6547 199.301 40.1746 197.826 42.3187C196.399 44.4323 194.293 45.9966 191.855 46.7533L191.782 44.951C195.198 45.858 197.852 47.5263 199.744 49.956C201.636 52.3858 202.578 55.2761 202.571 58.627C202.571 61.7173 201.938 64.3952 200.672 66.6607C199.41 68.9126 197.51 70.7423 195.21 71.9201C192.839 73.1697 190.032 73.7946 186.79 73.7946L164.274 73.7973ZM170.91 42.9266H184.878C186.353 42.9442 187.809 42.5964 189.116 41.9143C190.37 41.2637 191.422 40.283 192.158 39.0784C192.932 37.7718 193.321 36.2738 193.282 34.7563C193.282 32.4748 192.502 30.6101 190.943 29.1622C189.383 27.7144 187.362 26.9905 184.878 26.9905H170.91V42.9266ZM170.91 67.5417H185.554C187.369 67.5727 189.169 67.2023 190.825 66.4572C192.306 65.7889 193.575 64.7262 194.492 63.3856C195.386 62.061 195.833 60.4658 195.833 58.6002C195.86 56.9147 195.441 55.252 194.618 53.78C193.817 52.3661 192.653 51.1911 191.246 50.3764C189.74 49.5104 188.026 49.0707 186.289 49.1045H170.918L170.91 67.5417Z" fill="url(#paint2_linear_197_151)"/>
<path id="Vector_4" d="M225.385 73.7973V20.8126H231.944V73.7973H225.385Z" fill="url(#paint3_linear_197_151)"/>
<path id="Vector_5" d="M242.958 73.7973V34.0601H248.86V44.702H249.597V73.7973H242.958ZM271.339 73.7973V53.8925C271.344 52.0769 271.17 50.2651 270.821 48.4832C270.51 46.8282 269.925 45.2364 269.091 43.7728C268.301 42.3987 267.163 41.2562 265.791 40.4602C264.402 39.6515 262.651 39.2472 260.539 39.2472C259.004 39.2254 257.48 39.5132 256.059 40.0934C254.729 40.6525 253.55 41.5156 252.615 42.6133C251.588 43.8558 250.828 45.296 250.383 46.8443C249.817 48.7989 249.545 50.827 249.579 52.8615L245.265 51.5226C245.265 47.6968 245.96 44.3941 247.349 41.6144C248.631 38.9577 250.669 36.7371 253.208 35.2303C255.728 33.7468 258.695 33.005 262.111 33.005C264.692 33.005 266.89 33.4094 268.707 34.2181C270.444 34.9635 272 36.0732 273.27 37.4717C274.461 38.7996 275.42 40.3176 276.108 41.9625C276.79 43.5797 277.279 45.2712 277.565 47.0023C277.836 48.595 277.978 50.207 277.988 51.8225V73.7812L271.339 73.7973Z" fill="url(#paint4_linear_197_151)"/>
<path id="Vector_6" d="M287.527 73.7973V34.0601H293.429V44.702H294.166V73.7973H287.527ZM315.908 73.7973V53.8925C315.913 52.0769 315.739 50.2651 315.39 48.4832C315.079 46.8282 314.494 45.2364 313.66 43.7728C312.87 42.3987 311.732 41.2562 310.36 40.4602C308.971 39.6515 307.22 39.2472 305.108 39.2472C303.573 39.2252 302.049 39.513 300.628 40.0934C299.298 40.6525 298.119 41.5156 297.184 42.6133C296.157 43.8558 295.397 45.296 294.952 46.8443C294.39 48.7996 294.123 50.8277 294.161 52.8615L289.848 51.5226C289.848 47.6968 290.542 44.3941 291.932 41.6144C293.213 38.9577 295.251 36.7371 297.79 35.2303C300.308 33.7468 303.276 33.005 306.693 33.005C309.272 33.005 311.471 33.4094 313.29 34.2181C315.014 34.9625 316.56 36.0663 317.823 37.4557C319.014 38.7835 319.973 40.3015 320.661 41.9465C321.343 43.5636 321.831 45.2551 322.118 46.9863C322.389 48.579 322.53 50.1909 322.541 51.8065V73.7651L315.908 73.7973Z" fill="url(#paint5_linear_197_151)"/>
<path id="Vector_7" d="M349.079 74.9032C345.123 74.9032 341.714 74.0106 338.851 72.2253C335.985 70.4322 333.69 67.861 332.236 64.8129C330.689 61.6619 329.915 58.0253 329.913 53.9032C329.911 49.781 330.697 46.132 332.271 42.956C333.742 39.9157 336.058 37.3615 338.942 35.5971C341.817 33.844 345.196 32.9666 349.079 32.9648C353.06 32.9648 356.488 33.8574 359.363 35.6427C362.23 37.4275 364.525 39.994 365.978 43.039C367.513 46.1811 368.281 49.7998 368.283 53.8952C368.283 58.0405 367.508 61.6896 365.96 64.8424C364.505 67.8911 362.202 70.4577 359.326 72.236C356.45 74.0123 353.035 74.9014 349.079 74.9032ZM349.079 68.6824C353.192 68.6824 356.257 67.3087 358.274 64.5612C360.292 61.8137 361.306 58.2574 361.316 53.8925C361.316 49.4293 360.296 45.8588 358.256 43.1809C356.215 40.503 353.156 39.1641 349.079 39.1641C346.303 39.1641 344.018 39.7889 342.223 41.0386C340.394 42.3307 338.993 44.1376 338.199 46.2284C337.314 48.4349 336.871 50.9861 336.871 53.8818C336.871 58.3449 337.903 61.9261 339.967 64.6255C342.03 67.3248 345.068 68.6771 349.079 68.6824Z" fill="url(#paint6_linear_197_151)"/>
<path id="Vector_8" d="M385.678 73.7972L371.231 34.0601H377.864L389.034 65.4449L400.164 34.0601H406.835L392.387 73.7972H385.678Z" fill="url(#paint7_linear_197_151)"/>
<path id="Vector_9" d="M422.575 74.9032C419.602 74.9032 417.113 74.357 415.11 73.2644C413.22 72.2808 411.648 70.7821 410.577 68.9423C409.556 67.1472 409.029 65.1149 409.048 63.0509C409.048 60.9675 409.44 59.1644 410.225 57.6416C411.021 56.1084 412.179 54.7921 413.6 53.8068C415.192 52.7152 416.954 51.8944 418.815 51.378C420.903 50.8229 423.019 50.3759 425.153 50.039C427.487 49.6588 429.858 49.3089 432.267 48.9893C434.676 48.6698 436.937 48.3636 439.051 48.0708L436.691 49.4312C436.739 45.9231 436.024 43.3167 434.545 41.6117C433.066 39.9068 430.51 39.0544 426.878 39.0544C424.469 39.0544 422.363 39.6069 420.558 40.712C418.754 41.817 417.482 43.5827 416.744 46.0088L410.512 44.1343C411.473 40.6495 413.328 37.9136 416.079 35.9266C418.829 33.9396 422.461 32.9488 426.975 32.9541C430.585 32.9541 433.687 33.5986 436.28 34.8876C438.79 36.09 440.775 38.1632 441.865 40.72C442.44 41.9819 442.803 43.3301 442.938 44.7101C443.089 46.2085 443.163 47.7136 443.161 49.2196V73.7973H437.337V64.2667L438.7 65.1504C437.199 68.387 435.098 70.8221 432.396 72.4557C429.694 74.0892 426.42 74.905 422.575 74.9032ZM423.568 69.4189C425.929 69.4189 427.974 68.9958 429.705 68.1496C431.345 67.3782 432.779 66.2313 433.89 64.8022C434.924 63.4661 435.63 61.9071 435.953 60.2498C436.313 58.9171 436.511 57.546 436.543 56.1661C436.591 54.67 436.616 53.5042 436.618 52.6687L438.904 53.6622C436.758 53.98 434.65 54.2746 432.581 54.5459C430.512 54.8173 428.558 55.1065 426.72 55.4136C425.048 55.6748 423.393 56.0324 421.763 56.4847C420.703 56.8171 419.684 57.2662 418.723 57.8237C417.813 58.3417 417.032 59.0585 416.438 59.9205C415.837 60.8438 415.535 61.929 415.572 63.0295C415.573 64.115 415.859 65.1812 416.4 66.1224C417.008 67.1543 417.905 67.9857 418.981 68.5138C420.149 69.119 421.678 69.4207 423.568 69.4189Z" fill="url(#paint8_linear_197_151)"/>
<path id="Vector_10" d="M448.3 39.4667V34.0601H474.95V39.4667H448.3ZM474.95 73.7973C472.659 74.2812 470.317 74.4854 467.976 74.4051C465.846 74.3609 463.747 73.8853 461.806 73.0073C460.027 72.1867 458.588 70.7756 457.735 69.0146C456.973 67.5362 456.539 65.9113 456.463 64.2506C456.4 62.6439 456.37 60.822 456.372 58.785V23.0111H462.93V58.4904C462.93 60.1115 462.949 61.4977 462.987 62.6492C462.994 63.6892 463.253 64.7119 463.743 65.6297C464.625 67.1989 466.031 68.1184 467.963 68.3879C469.894 68.6575 472.219 68.5843 474.937 68.1683L474.95 73.7973Z" fill="url(#paint9_linear_197_151)"/>
<path id="Vector_11" d="M483.795 27.028V20.2609H490.356V27.028H483.795ZM483.795 73.7946V34.0601H490.356V73.7973L483.795 73.7946Z" fill="url(#paint10_linear_197_151)"/>
<path id="Vector_12" d="M518.369 74.9032C514.413 74.9032 511.004 74.0106 508.141 72.2253C505.274 70.4324 502.979 67.8612 501.523 64.8129C499.976 61.6619 499.203 58.0253 499.203 53.9032C499.203 49.781 499.989 46.132 501.561 42.956C503.032 39.9152 505.347 37.3608 508.232 35.5971C511.107 33.844 514.486 32.9666 518.369 32.9648C522.35 32.9648 525.777 33.8574 528.651 35.6427C531.518 37.4271 533.815 39.9936 535.268 43.039C536.803 46.1811 537.57 49.7998 537.57 53.8952C537.57 58.0405 536.796 61.6896 535.249 64.8424C533.794 67.8906 531.491 70.457 528.616 72.236C525.74 74.0123 522.325 74.9014 518.369 74.9032ZM518.369 68.6824C522.469 68.6824 525.535 67.3087 527.564 64.5612C529.594 61.8137 530.608 58.2574 530.606 53.8925C530.606 49.4293 529.586 45.8588 527.545 43.1809C525.505 40.503 522.446 39.1641 518.369 39.1641C515.59 39.1641 513.304 39.7889 511.512 41.0386C509.684 42.3307 508.283 44.1376 507.489 46.2284C506.595 48.4349 506.153 50.9861 506.164 53.8818C506.164 58.3449 507.195 61.9261 509.259 64.6255C511.323 67.3248 514.359 68.6771 518.369 68.6824Z" fill="url(#paint11_linear_197_151)"/>
<path id="Vector_13" d="M545.641 73.7973V34.0601H551.543V44.702H552.28V73.7973H545.641ZM574.024 73.7973V53.8925C574.028 52.0769 573.855 50.2652 573.507 48.4832C573.196 46.8277 572.61 45.2357 571.774 43.7728C570.986 42.3982 569.849 41.2556 568.477 40.4602C567.088 39.6515 565.337 39.2472 563.225 39.2472C561.69 39.2252 560.166 39.513 558.745 40.0934C557.415 40.6532 556.234 41.5162 555.298 42.6133C554.273 43.8567 553.515 45.2967 553.069 46.8443C552.503 48.7989 552.231 50.827 552.264 52.8615L547.951 51.5226C547.951 47.6968 548.646 44.3941 550.035 41.6144C551.317 38.9577 553.355 36.7371 555.894 35.2303C558.412 33.7468 561.379 33.005 564.797 33.005C567.374 33.005 569.572 33.4094 571.393 34.2181C573.118 34.9625 574.664 36.0663 575.926 37.4557C577.117 38.7835 578.077 40.3015 578.764 41.9465C579.445 43.564 579.934 45.2554 580.221 46.9863C580.492 48.579 580.634 50.1909 580.645 51.8065V73.7651L574.024 73.7973Z" fill="url(#paint12_linear_197_151)"/>
<path id="Vector_14" d="M37.482 66.8508C37.6512 67.0501 37.8582 67.2139 38.0912 67.3328C38.3241 67.4518 38.5783 67.5236 38.8391 67.544C39.1 67.5644 39.3623 67.5331 39.6109 67.4518C39.8596 67.3705 40.0896 67.2409 40.2879 67.0704L60.9079 49.2544C61.4741 49.6303 62.0212 50.0343 62.5469 50.4648C66.3318 53.539 68.4161 57.5934 68.4161 61.8405C68.4161 66.0876 66.3318 70.1259 62.5469 73.2242C58.5232 76.5207 53.102 78.339 47.3052 78.339C41.7391 78.339 36.5297 76.6626 32.5517 73.6098C32.388 73.484 32.2244 73.3554 32.0634 73.2242C31.275 72.5805 30.5411 71.8729 29.8692 71.1087L29.8343 71.0685C29.6342 70.8375 29.3684 70.6728 29.0723 70.5962C28.7761 70.5196 28.4636 70.5348 28.1763 70.6397C27.889 70.7446 27.6405 70.9343 27.4637 71.1835C27.287 71.4328 27.1904 71.7298 27.1867 72.0352L27.1653 74.1641V74.2552C27.1661 76.3192 27.7666 78.3387 28.8941 80.0688C30.0215 81.799 31.6275 83.1655 33.5173 84.0027L33.5737 84.0268C37.9049 85.9094 42.5812 86.8716 47.3052 86.852C55.0655 86.852 62.3994 84.3508 67.9601 79.8091C70.6563 77.6363 72.8768 74.9338 74.4838 71.8692C76.1051 68.7736 76.9518 65.3323 76.9518 61.8392C76.9518 58.346 76.1051 54.9047 74.4838 51.8091C72.8955 48.7749 70.7051 46.0953 68.0459 43.9335L67.9816 43.8799C67.6436 43.6121 67.3002 43.3443 66.9488 43.0765L66.989 43.0283C68.0765 41.6833 68.9962 40.2113 69.7278 38.6446C70.9858 35.9534 71.6377 33.0197 71.6377 30.0499C71.6377 27.0802 70.9858 24.1465 69.7278 21.4553C68.4924 18.8278 66.7399 16.4755 64.5748 14.5383C60.1541 10.5214 54.3037 8.31487 48.1019 8.31487C42.5002 8.27581 37.0544 10.1548 32.6724 13.6385C32.3156 13.9277 31.9669 14.225 31.6262 14.5356C31.4572 14.6882 31.2909 14.8409 31.13 14.9989C30.5357 15.5731 30.0681 16.2649 29.7571 17.03C29.446 17.795 29.2984 18.6165 29.3237 19.4417C29.3489 20.267 29.5465 21.0779 29.9037 21.8226C30.2609 22.5673 30.77 23.2293 31.3982 23.7663L31.9347 24.2215C32.1519 24.409 32.4072 24.5472 32.6831 24.6266C32.959 24.706 33.2488 24.7247 33.5327 24.6814C33.8165 24.6381 34.0875 24.5339 34.3271 24.3759C34.5666 24.2179 34.769 24.0099 34.9203 23.7663C36.035 21.9771 37.5408 20.4628 39.3249 19.3371C41.8112 17.7649 44.6794 16.8984 47.6217 16.8306H48.0804H48.1019C56.3611 16.8306 63.0807 22.7567 63.0807 30.0406C63.068 32.7376 62.1531 35.353 60.4814 37.4717L46.7553 25.8202C46.4037 25.517 45.9565 25.3471 45.492 25.3402C45.0274 25.3333 44.5753 25.49 44.215 25.7827L44.1452 25.8416C43.4943 26.3883 42.9703 27.0697 42.6095 27.8387C42.2488 28.6077 42.0599 29.4459 42.0561 30.2951C42.0523 31.1442 42.2335 31.984 42.5874 32.7562C42.9412 33.5285 43.459 34.2146 44.105 34.767L54.4754 43.5452L37.7503 58.0325C36.5544 59.0553 35.8135 60.5095 35.6898 62.0766C35.5661 63.6437 36.0698 65.1958 37.0904 66.3929L37.482 66.8508Z" fill="white"/>
</g>
<defs>
<radialGradient id="paint0_radial_197_151" cx="0" cy="0" r="1" gradientUnits="userSpaceOnUse" gradientTransform="translate(48.252 47.5807) scale(63.5474 63.4392)">
<stop stop-color="#00A9B3"/>
<stop offset="1" stop-color="#4D3BA5"/>
</radialGradient>
<linearGradient id="paint1_linear_197_151" x1="136.17" y1="78.5853" x2="136.17" y2="24.0742" gradientUnits="userSpaceOnUse">
<stop stop-color="#4D3BA5"/>
<stop offset="1" stop-color="#00A9B3"/>
</linearGradient>
<linearGradient id="paint2_linear_197_151" x1="183.424" y1="78.5853" x2="183.424" y2="24.0742" gradientUnits="userSpaceOnUse">
<stop stop-color="#4D3BA5"/>
<stop offset="1" stop-color="#00A9B3"/>
</linearGradient>
<linearGradient id="paint3_linear_197_151" x1="228.666" y1="78.5853" x2="228.666" y2="24.0742" gradientUnits="userSpaceOnUse">
<stop stop-color="#4D3BA5"/>
<stop offset="1" stop-color="#00A9B3"/>
</linearGradient>
<linearGradient id="paint4_linear_197_151" x1="260.472" y1="78.5853" x2="260.472" y2="24.0743" gradientUnits="userSpaceOnUse">
<stop stop-color="#4D3BA5"/>
<stop offset="1" stop-color="#00A9B3"/>
</linearGradient>
<linearGradient id="paint5_linear_197_151" x1="305.033" y1="78.5853" x2="305.033" y2="24.0743" gradientUnits="userSpaceOnUse">
<stop stop-color="#4D3BA5"/>
<stop offset="1" stop-color="#00A9B3"/>
</linearGradient>
<linearGradient id="paint6_linear_197_151" x1="349.098" y1="78.5853" x2="349.098" y2="24.0742" gradientUnits="userSpaceOnUse">
<stop stop-color="#4D3BA5"/>
<stop offset="1" stop-color="#00A9B3"/>
</linearGradient>
<linearGradient id="paint7_linear_197_151" x1="389.034" y1="78.5853" x2="389.034" y2="24.0742" gradientUnits="userSpaceOnUse">
<stop stop-color="#4D3BA5"/>
<stop offset="1" stop-color="#00A9B3"/>
</linearGradient>
<linearGradient id="paint8_linear_197_151" x1="426.095" y1="78.5853" x2="426.095" y2="24.0742" gradientUnits="userSpaceOnUse">
<stop stop-color="#4D3BA5"/>
<stop offset="1" stop-color="#00A9B3"/>
</linearGradient>
<linearGradient id="paint9_linear_197_151" x1="461.627" y1="78.5853" x2="461.627" y2="24.0742" gradientUnits="userSpaceOnUse">
<stop stop-color="#4D3BA5"/>
<stop offset="1" stop-color="#00A9B3"/>
</linearGradient>
<linearGradient id="paint10_linear_197_151" x1="487.075" y1="78.5853" x2="487.075" y2="24.0742" gradientUnits="userSpaceOnUse">
<stop stop-color="#4D3BA5"/>
<stop offset="1" stop-color="#00A9B3"/>
</linearGradient>
<linearGradient id="paint11_linear_197_151" x1="518.388" y1="78.5853" x2="518.388" y2="24.0742" gradientUnits="userSpaceOnUse">
<stop stop-color="#4D3BA5"/>
<stop offset="1" stop-color="#00A9B3"/>
</linearGradient>
<linearGradient id="paint12_linear_197_151" x1="563.15" y1="78.5853" x2="563.15" y2="24.0743" gradientUnits="userSpaceOnUse">
<stop stop-color="#4D3BA5"/>
<stop offset="1" stop-color="#00A9B3"/>
</linearGradient>
</defs>
</svg>
