<svg xmlns="http://www.w3.org/2000/svg" xmlns:xlink="http://www.w3.org/1999/xlink" viewBox="0 0 1363 1363"><defs><style>.eccff8cf-7195-49ea-95ca-80228fb22e79{fill:url(#bbc47082-cf6b-4c96-96e8-7d3e0f27556e);}</style><radialGradient id="bbc47082-cf6b-4c96-96e8-7d3e0f27556e" cx="582.34" cy="638.09" r="504.97" gradientUnits="userSpaceOnUse"><stop offset="0" stop-color="#00ba9c"/><stop offset="1" stop-color="#4d3aa5"/></radialGradient></defs><title>aa</title><g id="b8d7e525-d6ab-47a7-9bf9-82eff48b0aa5" data-name="Layer 12"><path class="eccff8cf-7195-49ea-95ca-80228fb22e79" d="M471.88,959.37a28.55,28.55,0,0,0,40.39,3.16l296.66-257q12.26,8.16,23.59,17.43C887,767.56,917,825.86,917,887.07s-30,119.49-84.51,164.15c-58,47.56-136,73.76-219.39,73.76-80.12,0-155.14-24.16-212.39-68.2q-3.56-2.71-7-5.56a264.87,264.87,0,0,1-31.61-30.5c-.16-.18-.32-.37-.49-.55-13.12-15.11-37.92-6.09-38.12,13.92l-.29,30.7v1.33a153.76,153.76,0,0,0,91.44,140.53l.78.34c60.31,26.62,127.79,40.75,197.7,40.75,111.71,0,217.26-36.08,297.19-101.57,40.07-32.82,71.66-71.33,93.93-114.46,23.58-45.69,35.54-94.35,35.54-144.64s-12-99-35.54-144.66c-22.07-42.73-53.29-80.93-92.84-113.56l-.15-.13-.94-.77q-7.27-6-14.84-11.6c.2-.23.38-.45.56-.69a306.88,306.88,0,0,0,39.43-63.23,293.07,293.07,0,0,0,0-247.85A312.09,312.09,0,0,0,861.73,205c-63.64-57.87-147.87-89.74-237.16-89.74-82.41,0-160.5,27.15-222.09,76.83q-7.71,6.22-15.07,12.91-3.65,3.3-7.16,6.7c-36.25,35-34.31,93.63,3.91,126.43l7.65,6.56a28.59,28.59,0,0,0,43-6.55c15.48-25.27,37.24-47.12,63.42-63.9,33.79-21.66,74.93-34.88,119.44-36.11h0q3.29-.1,6.61-.11h.3c118.9,0,215.63,85.46,215.63,190.49,0,39.69-13.81,76.58-37.42,107.12l-197.59-168a28.46,28.46,0,0,0-36.57-.51l-1,.83c-39.92,33.44-40.07,94.81-.56,128.72L716.33,623.2l-240.82,209a85.65,85.65,0,0,0-9.42,120.35Z"/></g></svg>